<?xml version="1.0" standalone="no"?>
<!DOCTYPE svg PUBLIC "-//W3C//DTD SVG 20010904//EN"
 "http://www.w3.org/TR/2001/REC-SVG-20010904/DTD/svg10.dtd">
<svg version="1.0" xmlns="http://www.w3.org/2000/svg"
 width="200.000000pt" height="98.000000pt" viewBox="0 0 200.000000 98.000000"
 preserveAspectRatio="xMidYMid meet">

<g transform="translate(0.000000,98.000000) scale(0.100000,-0.100000)"
fill="#000000" stroke="none">
<path d="M1910 795 l0 -145 -41 21 c-82 43 -174 34 -250 -24 -52 -40 -78 -88
-89 -167 -11 -75 -34 -117 -80 -141 -99 -53 -201 10 -215 133 -15 130 -92 210
-215 225 -93 11 -193 -48 -234 -137 -18 -40 -21 -69 -24 -263 -2 -120 -1 -228
2 -240 5 -21 52 -57 75 -57 7 0 11 44 11 135 0 74 4 135 9 135 5 0 28 -9 52
-20 59 -27 122 -25 186 4 l51 24 -20 41 c-11 23 -22 41 -24 41 -2 0 -18 -9
-36 -20 -89 -54 -211 18 -211 125 0 104 111 174 206 129 48 -23 75 -69 86
-147 14 -100 55 -157 141 -196 81 -37 171 -23 240 37 52 44 75 90 88 176 8 47
18 76 34 93 96 103 253 45 253 -92 0 -116 -124 -185 -217 -121 l-35 24 -19
-37 c-10 -20 -20 -39 -22 -43 -6 -12 76 -48 123 -55 66 -9 128 13 185 64 73
66 80 97 80 368 l0 222 -40 27 c-22 14 -42 26 -45 26 -3 0 -5 -65 -5 -145z"/>
<path d="M153 684 c-82 -30 -153 -132 -153 -219 0 -77 61 -174 133 -212 53
-27 136 -28 195 -3 29 12 52 26 52 31 0 4 -9 23 -20 42 l-21 35 -37 -20 c-75
-39 -165 -5 -197 74 -48 121 80 242 195 183 29 -15 30 -15 50 25 l20 39 -32
17 c-44 23 -134 27 -185 8z"/>
<path d="M1320 691 c-30 -9 -90 -40 -90 -46 0 -6 42 -75 46 -75 2 0 18 9 36
20 42 26 93 25 142 -1 21 -11 39 -19 41 -17 1 2 10 18 20 37 17 34 17 35 -6
52 -44 33 -133 47 -189 30z"/>
<path d="M404 558 c-25 -56 -24 -140 4 -194 25 -50 93 -110 133 -119 25 -6 29
-11 29 -40 0 -29 7 -39 45 -65 l45 -31 0 60 c0 60 0 61 35 75 34 15 35 17 35
70 l0 55 -37 -25 c-75 -51 -175 -16 -209 73 -17 42 -17 49 -2 90 l16 44 -33
24 c-17 14 -34 25 -37 25 -3 0 -13 -19 -24 -42z"/>
</g>
</svg>
